<svg version="1.1" id="Layer_1" xmlns="http://www.w3.org/2000/svg" xmlns:xlink="http://www.w3.org/1999/xlink" x="0px" y="0px"
	 width="106px" height="34.917px" viewBox="0 0 106 34.917" enable-background="new 0 0 106 34.917" xml:space="preserve">
<g>
	<path fill="#7ECC69" d="M14.925,32.841c-1.63,0-3.271-0.203-4.921-0.606c-1.651-0.404-3.098-0.955-4.341-1.652l-1.782,1.45H2.119
		l2.196-10.63h1.782c0.166,1.038,0.47,2.114,0.912,3.229c0.442,1.114,1.016,2.107,1.72,2.979c0.69,0.9,1.568,1.647,2.632,2.243
		c1.063,0.596,2.279,0.893,3.647,0.893c2.003,0,3.605-0.487,4.808-1.463c1.202-0.977,1.803-2.26,1.803-3.852
		c0-1.023-0.342-1.923-1.026-2.697s-1.786-1.438-3.305-1.992c-0.967-0.346-1.903-0.682-2.808-1.007
		c-0.905-0.324-1.765-0.66-2.58-1.006c-1.616-0.678-2.832-1.643-3.647-2.895c-0.815-1.252-1.223-2.583-1.223-3.995
		c0-1.3,0.297-2.548,0.891-3.745C8.515,6.9,9.372,5.832,10.491,4.891c1.091-0.927,2.442-1.67,4.051-2.231
		c1.609-0.56,3.374-0.84,5.294-0.84c1.603,0,3.191,0.234,4.766,0.701c1.575,0.468,2.735,0.918,3.481,1.35l1.554-1.243h1.803
		l-2.155,10.03h-1.782c-0.18-1.177-0.439-2.285-0.777-3.324c-0.339-1.039-0.805-1.973-1.399-2.804
		c-0.58-0.803-1.302-1.443-2.165-1.921c-0.864-0.478-1.903-0.716-3.119-0.716c-1.686,0-3.091,0.471-4.217,1.412
		c-1.126,0.941-1.689,2.125-1.689,3.55c0,0.996,0.339,1.868,1.016,2.615c0.677,0.747,1.748,1.397,3.212,1.95
		c0.856,0.318,1.754,0.647,2.694,0.986s1.837,0.688,2.694,1.048c1.603,0.664,2.866,1.566,3.792,2.708
		c0.925,1.141,1.389,2.493,1.389,4.057c0,1.479-0.339,2.87-1.016,4.17c-0.677,1.301-1.624,2.421-2.839,3.361
		c-1.285,0.996-2.784,1.761-4.497,2.294C18.869,32.575,16.983,32.841,14.925,32.841z"/>
	<path fill="#7ECC69" d="M70.292,4.141c-0.428,0.042-0.863,0.135-1.306,0.28c-0.441,0.145-0.925,0.342-1.45,0.591
		c-0.663,0.318-1.202,0.677-1.616,1.078s-0.863,0.953-1.347,1.658c-0.719,1.05-1.603,2.386-2.652,4.01
		c-1.05,1.623-2.458,3.782-4.226,6.476c-1.81,2.776-3.433,5.28-4.869,7.512c-1.437,2.231-2.852,4.438-4.247,6.62H44.41
		c-1.077-6.119-1.989-11.252-2.735-15.396c-0.746-4.145-1.319-7.26-1.72-9.346c-0.166-0.746-0.376-1.295-0.632-1.647
		c-0.256-0.352-0.625-0.687-1.109-1.005c-0.387-0.249-0.753-0.432-1.098-0.549c-0.346-0.117-0.788-0.21-1.326-0.28l0.352-1.513
		h15.605l-0.373,1.513c-1.133,0.125-1.976,0.252-2.528,0.383c-0.553,0.132-0.96,0.266-1.223,0.404
		c-0.249,0.124-0.387,0.27-0.415,0.435c-0.028,0.166-0.042,0.311-0.042,0.435c0,0.304,0.027,0.615,0.083,0.933
		c0.055,0.318,0.125,0.753,0.207,1.305c0.263,1.628,0.657,3.83,1.183,6.604c0.525,2.774,1.162,6.327,1.909,10.66
		c1.82-2.87,3.503-5.543,5.048-8.02c1.544-2.477,3.02-4.854,4.427-7.131c0.593-0.966,1.107-1.87,1.543-2.713
		c0.437-0.842,0.654-1.416,0.654-1.72c0-0.415-0.356-0.76-1.068-1.036s-1.738-0.456-3.078-0.539l0.373-1.513h12.217L70.292,4.141z"
		/>
	<path fill="#7ECC69" d="M83.179,32.841c-1.879,0-3.619-0.267-5.222-0.799s-2.998-1.316-4.186-2.354
		c-1.202-1.037-2.139-2.302-2.809-3.795c-0.67-1.492-1.005-3.173-1.005-5.039c0-2.764,0.487-5.304,1.461-7.62
		c0.975-2.316,2.331-4.331,4.072-6.045c1.713-1.686,3.761-3.003,6.144-3.95c2.384-0.947,4.956-1.42,7.72-1.42
		c1.671,0,3.332,0.206,4.983,0.618c1.65,0.412,2.891,0.855,3.72,1.33l1.533-1.14h1.803l-2.279,10.734h-1.823
		c-0.305-3.191-1.158-5.591-2.56-7.201c-1.402-1.609-3.216-2.414-5.439-2.414c-1.769,0-3.344,0.525-4.725,1.575
		c-1.382,1.05-2.549,2.411-3.502,4.083c-0.939,1.63-1.668,3.574-2.187,5.833c-0.518,2.259-0.777,4.487-0.777,6.683
		c0,2.735,0.537,4.907,1.61,6.517c1.072,1.609,2.654,2.414,4.746,2.414c1.135,0,2.117-0.187,2.948-0.56s1.564-0.828,2.202-1.367
		l1.29-5.615c0.055-0.249,0.099-0.48,0.133-0.694c0.034-0.215,0.052-0.384,0.052-0.508c0-0.58-0.36-1.032-1.08-1.357
		c-0.72-0.324-1.744-0.584-3.073-0.777l0.352-1.513h15.915l-0.353,1.513c-0.428,0.028-0.926,0.098-1.491,0.207
		c-0.567,0.111-1.022,0.215-1.368,0.312c-0.58,0.18-1.002,0.459-1.264,0.839c-0.263,0.381-0.449,0.798-0.56,1.254l-0.829,3.585
		c-0.139,0.608-0.252,1.157-0.342,1.647s-0.184,1.019-0.28,1.585c-1.588,0.912-3.691,1.713-6.31,2.404
		C87.782,32.496,85.375,32.841,83.179,32.841z"/>
</g>
</svg>
